<?xml version="1.0" encoding="utf-8"?>
<!-- Generator: Adobe Illustrator 25.0.0, SVG Export Plug-In . SVG Version: 6.00 Build 0)  -->
<svg version="1.1" xmlns="http://www.w3.org/2000/svg" xmlns:xlink="http://www.w3.org/1999/xlink" x="0px" y="0px"
	 viewBox="0 0 256 52" style="enable-background:new 0 0 256 52;" xml:space="preserve">
<style type="text/css">
	.st0{opacity:0.5;}
	.st1{fill:#13202F;}
	.st2{enable-background:new    ;}
	.st3{fill:#FFFFFF;}
	.st4{fill:#E43AD2;}
</style>
<g class="st0">
	<g id="レイヤー_1">
	</g>
</g>
<g>
	<path class="st1" d="M227.323,47.518c-4.106,0-6.546,0.05-8.808,0.15c0.847-8.934,0.774-31.803-0.007-40.788l13.06-0.001
		c-0.942,4.666-0.302,26.532-0.477,31.852c5.611-0.076,19.629,0.238,24.201-0.347l0.001,9.478
		C250.595,47.266,233.067,47.598,227.323,47.518z"/>
	<g>
		<g>
			<g class="st2">
				<path class="st3" d="M100.345,50.354c-0.398-3.788-1.112-6.614-1.877-9.999l-10.494-0.001
					c-0.673,3.034-1.701,7.041-1.917,10.002l-8.606-0.001c2.138-7.491,9.385-35.21,10.883-42.999l9.634,0.001
					c1.66,7.868,8.792,35.312,10.983,42.997L100.345,50.354z M93.168,16.82l-3.427,15.536l6.923-0.001L93.168,16.82z"/>
			</g>
			<g class="st2">
				<path class="st1" d="M100.345,50.354c-0.398-3.788-1.112-6.614-1.877-9.999l-10.494-0.001
					c-0.673,3.034-1.701,7.041-1.917,10.002l-8.606-0.001c2.138-7.491,9.385-35.21,10.883-42.999l9.634,0.001
					c1.66,7.868,8.792,35.312,10.983,42.997L100.345,50.354z M93.168,16.82l-3.427,15.536l6.923-0.001L93.168,16.82z"/>
			</g>
		</g>
		<polygon class="st4" points="93.141,15.424 97.769,33.278 88.631,33.278 		"/>
	</g>
	<g>
		<g>
			<g class="st2">
				<path class="st1" d="M213.678,45.29c-8.583-0.199-28.178,0.981-36.925,1.536c0.244-8.262-1.318-29.852-2.686-38.153
					c8.735-0.255,27.348-0.858,36.193-1.868l0.6,8.513c-4.91-0.296-18.624,0.608-24.102,0.804l0.473,6.692
					c5.742-0.327,16.118-0.544,21.524-1.322l0.594,8.423c-4.633-0.282-16.322,0.485-21.57,0.684l0.538,7.65
					c5.646-0.321,20.034-0.731,24.761-1.474L213.678,45.29z"/>
			</g>
		</g>
	</g>
	<g>
		<polyline class="st1" points="20.228,51.448 40.939,0.931 1.345,45.381 		"/>
		<polyline class="st4" points="44.892,36.967 40.522,5.689 30.742,29.683 		"/>
		<polyline class="st1" points="66.28,42.112 40.97,2.138 49.413,50.606 		"/>
	</g>
	<path class="st1" d="M171.414,25.159l2.762,9.966l-44.115-4.215l-1.158-4.179l35.681-26.216l2.747,9.912l-18.53,13.039
		L171.414,25.159z"/>
	<g>
		<path class="st4" d="M142.655,35.695l6.191,12.806l-36.361-6.628l-2.596-5.37l17.458-32.476l6.157,12.737l-9.299,16.131
			L142.655,35.695z"/>
	</g>
</g>
</svg>
