<?xml version="1.0" encoding="utf-8"?>
<!-- Generator: Adobe Illustrator 25.0.0, SVG Export Plug-In . SVG Version: 6.00 Build 0)  -->
<svg version="1.1" id="レイヤー_1" xmlns="http://www.w3.org/2000/svg" xmlns:xlink="http://www.w3.org/1999/xlink" x="0px"
	 y="0px" viewBox="0 0 104.465 104.528" style="enable-background:new 0 0 104.465 104.528;" xml:space="preserve">
<style type="text/css">
	.st0{fill:#0095FF;}
	.st1{fill:#FF3A30;}
	.st2{fill:#FFF530;}
</style>
<g>
	<ellipse class="st0" cx="77.883" cy="34.313" rx="25.617" ry="26.45"/>
	<path d="M77.883,8.363c13.85,0,25.117,11.641,25.117,25.95s-11.268,25.95-25.117,25.95c-13.85,0-25.117-11.641-25.117-25.95
		S64.033,8.363,77.883,8.363 M77.883,7.363c-14.424,0-26.117,12.066-26.117,26.95s11.693,26.95,26.117,26.95S104,49.197,104,34.313
		S92.307,7.363,77.883,7.363L77.883,7.363z"/>
</g>
<g>
	<ellipse class="st1" cx="26.76" cy="29.95" rx="25.617" ry="26.45"/>
	<path d="M26.76,4c13.85,0,25.117,11.641,25.117,25.95S40.61,55.9,26.76,55.9S1.643,44.259,1.643,29.95S12.91,4,26.76,4 M26.76,3
		C12.336,3,0.643,15.066,0.643,29.95S12.336,56.9,26.76,56.9s26.117-12.066,26.117-26.95S41.184,3,26.76,3L26.76,3z"/>
</g>
<g>
	<path class="st2" d="M48.873,103.938c-14.125,0-25.618-11.866-25.618-26.45s11.492-26.45,25.618-26.45
		c14.125,0,25.617,11.866,25.617,26.45S62.998,103.938,48.873,103.938z"/>
	<path d="M48.873,51.537c13.85,0,25.117,11.641,25.117,25.95s-11.268,25.95-25.117,25.95s-25.117-11.641-25.117-25.95
		S35.023,51.537,48.873,51.537 M48.873,50.537c-14.424,0-26.117,12.066-26.117,26.95s11.693,26.95,26.117,26.95
		S74.99,92.372,74.99,77.487C74.99,62.603,63.297,50.537,48.873,50.537L48.873,50.537z"/>
</g>
</svg>
